{
    "asset" : {
        "generator" : "Khronos glTF Blender I/O v1.4.40",
        "version" : "2.0"
    },
    "scene" : 0,
    "scenes" : [
        {
            "name" : "Scene",
            "nodes" : [
                0,
                1,
                2,
                3,
                4,
                5,
                6,
                7,
                8,
                9
            ]
        }
    ],
    "nodes" : [
        {
            "mesh" : 0,
            "name" : "box_bottom",
            "scale" : [
                2,
                1,
                2
            ],
            "translation" : [
                0,
                1,
                0
            ]
        },
        {
            "name" : "Light",
            "rotation" : [
                0.16907575726509094,
                0.7558803558349609,
                -0.27217137813568115,
                0.570947527885437
            ],
            "translation" : [
                -3.3834586143493652,
                7.390751838684082,
                2.9366564750671387
            ]
        },
        {
            "name" : "Camera",
            "rotation" : [
                0.483536034822464,
                0.33687159419059753,
                -0.20870360732078552,
                0.7804827094078064
            ],
            "translation" : [
                3.9315004348754883,
                6.654055118560791,
                3.312432289123535
            ]
        },
        {
            "mesh" : 1,
            "name" : "box_top",
            "rotation" : [
                0.95721036195755,
                0,
                0,
                0.2893931269645691
            ],
            "scale" : [
                2,
                1,
                2
            ],
            "translation" : [
                0,
                1.5257794857025146,
                -2.8215153217315674
            ]
        },
        {
            "mesh" : 2,
            "name" : "Cube",
            "translation" : [
                0,
                1,
                0
            ]
        },
        {
            "mesh" : 3,
            "name" : "Cylinder",
            "rotation" : [
                -0.7071067690849304,
                0,
                0,
                0.7071068286895752
            ],
            "scale" : [
                0.6000000238418579,
                0.6000000238418579,
                0.6000000238418579
            ],
            "translation" : [
                0,
                2.1580872535705566,
                0
            ]
        },
        {
            "mesh" : 4,
            "name" : "Cube.001",
            "translation" : [
                0,
                3.2980871200561523,
                0.19999995827674866
            ]
        },
        {
            "mesh" : 5,
            "name" : "Cube.002",
            "translation" : [
                0,
                3.2980871200561523,
                -0.20000001788139343
            ]
        },
        {
            "mesh" : 6,
            "name" : "Cube.003",
            "scale" : [
                0.27129486203193665,
                0.10226594656705856,
                0.30000001192092896
            ],
            "translation" : [
                0,
                3.45808744430542,
                0
            ]
        },
        {
            "mesh" : 7,
            "name" : "Cylinder.001",
            "translation" : [
                0,
                -0.5,
                0
            ]
        }
    ],
    "materials" : [
        {
            "doubleSided" : true,
            "name" : "box",
            "pbrMetallicRoughness" : {
                "baseColorFactor" : [
                    0.046961862593889236,
                    0,
                    0.00023651114315725863,
                    1
                ],
                "metallicFactor" : 0,
                "roughnessFactor" : 0.20000000298023224
            }
        },
        {
            "doubleSided" : true,
            "name" : "puff",
            "pbrMetallicRoughness" : {}
        },
        {
            "doubleSided" : true,
            "name" : "gold",
            "pbrMetallicRoughness" : {
                "baseColorFactor" : [
                    0.8000000715255737,
                    0.4352015554904938,
                    0.006869434844702482,
                    1
                ],
                "roughnessFactor" : 0.15000000596046448
            }
        },
        {
            "alphaMode" : "BLEND",
            "doubleSided" : true,
            "name" : "sapphire",
            "pbrMetallicRoughness" : {
                "baseColorFactor" : [
                    0.609065055847168,
                    0.7311621308326721,
                    0.8000000715255737,
                    0.11520737409591675
                ],
                "metallicFactor" : 0,
                "roughnessFactor" : 0.21658986806869507
            }
        },
        {
            "doubleSided" : true,
            "name" : "Material",
            "pbrMetallicRoughness" : {
                "baseColorFactor" : [
                    0.800000011920929,
                    0.800000011920929,
                    0.800000011920929,
                    1
                ],
                "metallicFactor" : 0
            }
        }
    ],
    "meshes" : [
        {
            "name" : "Cube",
            "primitives" : [
                {
                    "attributes" : {
                        "POSITION" : 0,
                        "NORMAL" : 1,
                        "TANGENT" : 2,
                        "TEXCOORD_0" : 3
                    },
                    "indices" : 4,
                    "material" : 0
                }
            ]
        },
        {
            "name" : "Cube.001",
            "primitives" : [
                {
                    "attributes" : {
                        "POSITION" : 5,
                        "NORMAL" : 6,
                        "TANGENT" : 7,
                        "TEXCOORD_0" : 8
                    },
                    "indices" : 9,
                    "material" : 0
                }
            ]
        },
        {
            "name" : "Cube.002",
            "primitives" : [
                {
                    "attributes" : {
                        "POSITION" : 10,
                        "NORMAL" : 11,
                        "TANGENT" : 12,
                        "TEXCOORD_0" : 13
                    },
                    "indices" : 14,
                    "material" : 1
                }
            ]
        },
        {
            "name" : "Cylinder",
            "primitives" : [
                {
                    "attributes" : {
                        "POSITION" : 15,
                        "NORMAL" : 16,
                        "TANGENT" : 17,
                        "TEXCOORD_0" : 18
                    },
                    "indices" : 19,
                    "material" : 2
                }
            ]
        },
        {
            "name" : "Cube.005",
            "primitives" : [
                {
                    "attributes" : {
                        "POSITION" : 20,
                        "NORMAL" : 21
                    },
                    "indices" : 22,
                    "material" : 2
                }
            ]
        },
        {
            "name" : "Cube.007",
            "primitives" : [
                {
                    "attributes" : {
                        "POSITION" : 23,
                        "NORMAL" : 24
                    },
                    "indices" : 22,
                    "material" : 2
                }
            ]
        },
        {
            "name" : "Cube.008",
            "primitives" : [
                {
                    "attributes" : {
                        "POSITION" : 25,
                        "NORMAL" : 26,
                        "TANGENT" : 27,
                        "TEXCOORD_0" : 28
                    },
                    "indices" : 29,
                    "material" : 3
                }
            ]
        },
        {
            "name" : "Cylinder.001",
            "primitives" : [
                {
                    "attributes" : {
                        "POSITION" : 30,
                        "NORMAL" : 31,
                        "TEXCOORD_0" : 32
                    },
                    "indices" : 33,
                    "material" : 4
                }
            ]
        }
    ],
    "accessors" : [
        {
            "bufferView" : 0,
            "componentType" : 5126,
            "count" : 50,
            "max" : [
                1,
                1,
                1
            ],
            "min" : [
                -1,
                -1,
                -1
            ],
            "type" : "VEC3"
        },
        {
            "bufferView" : 1,
            "componentType" : 5126,
            "count" : 50,
            "type" : "VEC3"
        },
        {
            "bufferView" : 2,
            "componentType" : 5126,
            "count" : 50,
            "type" : "VEC4"
        },
        {
            "bufferView" : 3,
            "componentType" : 5126,
            "count" : 50,
            "type" : "VEC2"
        },
        {
            "bufferView" : 4,
            "componentType" : 5123,
            "count" : 84,
            "type" : "SCALAR"
        },
        {
            "bufferView" : 5,
            "componentType" : 5126,
            "count" : 56,
            "max" : [
                1.100000023841858,
                0.35743677616119385,
                1.100000023841858
            ],
            "min" : [
                -1.100000023841858,
                -1,
                -1.100000023841858
            ],
            "type" : "VEC3"
        },
        {
            "bufferView" : 6,
            "componentType" : 5126,
            "count" : 56,
            "type" : "VEC3"
        },
        {
            "bufferView" : 7,
            "componentType" : 5126,
            "count" : 56,
            "type" : "VEC4"
        },
        {
            "bufferView" : 8,
            "componentType" : 5126,
            "count" : 56,
            "type" : "VEC2"
        },
        {
            "bufferView" : 9,
            "componentType" : 5123,
            "count" : 84,
            "type" : "SCALAR"
        },
        {
            "bufferView" : 10,
            "componentType" : 5126,
            "count" : 1912,
            "max" : [
                1.932371973991394,
                1.3839001655578613,
                1.9118274450302124
            ],
            "min" : [
                -1.932371973991394,
                -0.7917491793632507,
                -1.9118274450302124
            ],
            "type" : "VEC3"
        },
        {
            "bufferView" : 11,
            "componentType" : 5126,
            "count" : 1912,
            "type" : "VEC3"
        },
        {
            "bufferView" : 12,
            "componentType" : 5126,
            "count" : 1912,
            "type" : "VEC4"
        },
        {
            "bufferView" : 13,
            "componentType" : 5126,
            "count" : 1912,
            "type" : "VEC2"
        },
        {
            "bufferView" : 14,
            "componentType" : 5123,
            "count" : 6912,
            "type" : "SCALAR"
        },
        {
            "bufferView" : 15,
            "componentType" : 5126,
            "count" : 681,
            "max" : [
                1.9900000095367432,
                0.25,
                1.9900000095367432
            ],
            "min" : [
                -1.9900001287460327,
                -0.25,
                -1.9900000095367432
            ],
            "type" : "VEC3"
        },
        {
            "bufferView" : 16,
            "componentType" : 5126,
            "count" : 681,
            "type" : "VEC3"
        },
        {
            "bufferView" : 17,
            "componentType" : 5126,
            "count" : 681,
            "type" : "VEC4"
        },
        {
            "bufferView" : 18,
            "componentType" : 5126,
            "count" : 681,
            "type" : "VEC2"
        },
        {
            "bufferView" : 19,
            "componentType" : 5123,
            "count" : 3072,
            "type" : "SCALAR"
        },
        {
            "bufferView" : 20,
            "componentType" : 5126,
            "count" : 52,
            "max" : [
                0.32956182956695557,
                0.19999998807907104,
                0.051096417009830475
            ],
            "min" : [
                -0.32956182956695557,
                -0.04975185543298721,
                -0.051096655428409576
            ],
            "type" : "VEC3"
        },
        {
            "bufferView" : 21,
            "componentType" : 5126,
            "count" : 52,
            "type" : "VEC3"
        },
        {
            "bufferView" : 22,
            "componentType" : 5123,
            "count" : 306,
            "type" : "SCALAR"
        },
        {
            "bufferView" : 23,
            "componentType" : 5126,
            "count" : 52,
            "max" : [
                0.32956182956695557,
                0.19999998807907104,
                0.051096417009830475
            ],
            "min" : [
                -0.32956182956695557,
                -0.04975185543298721,
                -0.051096655428409576
            ],
            "type" : "VEC3"
        },
        {
            "bufferView" : 24,
            "componentType" : 5126,
            "count" : 52,
            "type" : "VEC3"
        },
        {
            "bufferView" : 25,
            "componentType" : 5126,
            "count" : 96,
            "max" : [
                1,
                1,
                1
            ],
            "min" : [
                -1,
                -1,
                -1
            ],
            "type" : "VEC3"
        },
        {
            "bufferView" : 26,
            "componentType" : 5126,
            "count" : 96,
            "type" : "VEC3"
        },
        {
            "bufferView" : 27,
            "componentType" : 5126,
            "count" : 96,
            "type" : "VEC4"
        },
        {
            "bufferView" : 28,
            "componentType" : 5126,
            "count" : 96,
            "type" : "VEC2"
        },
        {
            "bufferView" : 29,
            "componentType" : 5123,
            "count" : 132,
            "type" : "SCALAR"
        },
        {
            "bufferView" : 30,
            "componentType" : 5126,
            "count" : 194,
            "max" : [
                8,
                0.5,
                8
            ],
            "min" : [
                -8,
                -0.5,
                -8
            ],
            "type" : "VEC3"
        },
        {
            "bufferView" : 31,
            "componentType" : 5126,
            "count" : 194,
            "type" : "VEC3"
        },
        {
            "bufferView" : 32,
            "componentType" : 5126,
            "count" : 194,
            "type" : "VEC2"
        },
        {
            "bufferView" : 33,
            "componentType" : 5123,
            "count" : 564,
            "type" : "SCALAR"
        }
    ],
    "bufferViews" : [
        {
            "buffer" : 0,
            "byteLength" : 600,
            "byteOffset" : 0
        },
        {
            "buffer" : 0,
            "byteLength" : 600,
            "byteOffset" : 600
        },
        {
            "buffer" : 0,
            "byteLength" : 800,
            "byteOffset" : 1200
        },
        {
            "buffer" : 0,
            "byteLength" : 400,
            "byteOffset" : 2000
        },
        {
            "buffer" : 0,
            "byteLength" : 168,
            "byteOffset" : 2400
        },
        {
            "buffer" : 0,
            "byteLength" : 672,
            "byteOffset" : 2568
        },
        {
            "buffer" : 0,
            "byteLength" : 672,
            "byteOffset" : 3240
        },
        {
            "buffer" : 0,
            "byteLength" : 896,
            "byteOffset" : 3912
        },
        {
            "buffer" : 0,
            "byteLength" : 448,
            "byteOffset" : 4808
        },
        {
            "buffer" : 0,
            "byteLength" : 168,
            "byteOffset" : 5256
        },
        {
            "buffer" : 0,
            "byteLength" : 22944,
            "byteOffset" : 5424
        },
        {
            "buffer" : 0,
            "byteLength" : 22944,
            "byteOffset" : 28368
        },
        {
            "buffer" : 0,
            "byteLength" : 30592,
            "byteOffset" : 51312
        },
        {
            "buffer" : 0,
            "byteLength" : 15296,
            "byteOffset" : 81904
        },
        {
            "buffer" : 0,
            "byteLength" : 13824,
            "byteOffset" : 97200
        },
        {
            "buffer" : 0,
            "byteLength" : 8172,
            "byteOffset" : 111024
        },
        {
            "buffer" : 0,
            "byteLength" : 8172,
            "byteOffset" : 119196
        },
        {
            "buffer" : 0,
            "byteLength" : 10896,
            "byteOffset" : 127368
        },
        {
            "buffer" : 0,
            "byteLength" : 5448,
            "byteOffset" : 138264
        },
        {
            "buffer" : 0,
            "byteLength" : 6144,
            "byteOffset" : 143712
        },
        {
            "buffer" : 0,
            "byteLength" : 624,
            "byteOffset" : 149856
        },
        {
            "buffer" : 0,
            "byteLength" : 624,
            "byteOffset" : 150480
        },
        {
            "buffer" : 0,
            "byteLength" : 612,
            "byteOffset" : 151104
        },
        {
            "buffer" : 0,
            "byteLength" : 624,
            "byteOffset" : 151716
        },
        {
            "buffer" : 0,
            "byteLength" : 624,
            "byteOffset" : 152340
        },
        {
            "buffer" : 0,
            "byteLength" : 1152,
            "byteOffset" : 152964
        },
        {
            "buffer" : 0,
            "byteLength" : 1152,
            "byteOffset" : 154116
        },
        {
            "buffer" : 0,
            "byteLength" : 1536,
            "byteOffset" : 155268
        },
        {
            "buffer" : 0,
            "byteLength" : 768,
            "byteOffset" : 156804
        },
        {
            "buffer" : 0,
            "byteLength" : 264,
            "byteOffset" : 157572
        },
        {
            "buffer" : 0,
            "byteLength" : 2328,
            "byteOffset" : 157836
        },
        {
            "buffer" : 0,
            "byteLength" : 2328,
            "byteOffset" : 160164
        },
        {
            "buffer" : 0,
            "byteLength" : 1552,
            "byteOffset" : 162492
        },
        {
            "buffer" : 0,
            "byteLength" : 1128,
            "byteOffset" : 164044
        }
    ],
    "buffers" : [
        {
            "byteLength" : 165172,
            "uri" : "data:application/octet-stream;base64,"
        }
    ]
}
